<svg version="1.1" xmlns="http://www.w3.org/2000/svg" xmlns:xlink="http://www.w3.org/1999/xlink" width="788" height="460"><defs/><g><text fill="#eeeeee" stroke="none" font-family="Arial" font-size="24px" font-style="normal" font-weight="normal" text-decoration="none" x="0" y="0"></text><text fill="#eeeeee" stroke="none" font-family="Arial" font-size="24px" font-style="normal" font-weight="normal" text-decoration="none" x="0" y="30"></text><text fill="#eeeeee" stroke="none" font-family="Arial" font-size="24px" font-style="normal" font-weight="normal" text-decoration="none" x="0" y="60"></text><text fill="#eeeeee" stroke="none" font-family="Arial" font-size="24px" font-style="normal" font-weight="normal" text-decoration="none" x="0" y="90"></text><text fill="#eeeeee" stroke="none" font-family="Arial" font-size="24px" font-style="normal" font-weight="normal" text-decoration="none" x="0" y="120"></text><text fill="#eeeeee" stroke="none" font-family="Arial" font-size="24px" font-style="normal" font-weight="normal" text-decoration="none" x="0" y="150"></text><text fill="#eeeeee" stroke="none" font-family="Arial" font-size="24px" font-style="normal" font-weight="normal" text-decoration="none" x="0" y="180"></text><text fill="#eeeeee" stroke="none" font-family="Arial" font-size="24px" font-style="normal" font-weight="normal" text-decoration="none" x="0" y="210"></text><text fill="#eeeeee" stroke="none" font-family="Arial" font-size="24px" font-style="normal" font-weight="normal" text-decoration="none" x="0" y="240"></text><text fill="#eeeeee" stroke="none" font-family="Arial" font-size="24px" font-style="normal" font-weight="normal" text-decoration="none" x="0" y="270"></text><text fill="#eeeeee" stroke="none" font-family="Arial" font-size="24px" font-style="normal" font-weight="normal" text-decoration="none" x="0" y="300"></text><text fill="#eeeeee" stroke="none" font-family="Arial" font-size="24px" font-style="normal" font-weight="normal" text-decoration="none" x="0" y="330"></text><text fill="#eeeeee" stroke="none" font-family="Arial" font-size="24px" font-style="normal" font-weight="normal" text-decoration="none" x="0" y="360"></text><text fill="#eeeeee" stroke="none" font-family="Arial" font-size="24px" font-style="normal" font-weight="normal" text-decoration="none" x="0" y="390"></text><text fill="#eeeeee" stroke="none" font-family="Arial" font-size="24px" font-style="normal" font-weight="normal" text-decoration="none" x="0" y="420"></text><text fill="#eeeeee" stroke="none" font-family="Arial" font-size="24px" font-style="normal" font-weight="normal" text-decoration="none" x="0" y="450"></text><text fill="#eeeeee" stroke="none" font-family="Arial" font-size="24px" font-style="normal" font-weight="normal" text-decoration="none" x="200" y="0"></text><text fill="#eeeeee" stroke="none" font-family="Arial" font-size="24px" font-style="normal" font-weight="normal" text-decoration="none" x="200" y="30"></text><text fill="#eeeeee" stroke="none" font-family="Arial" font-size="24px" font-style="normal" font-weight="normal" text-decoration="none" x="200" y="60"></text><text fill="#eeeeee" stroke="none" font-family="Arial" font-size="24px" font-style="normal" font-weight="normal" text-decoration="none" x="200" y="90"></text><text fill="#eeeeee" stroke="none" font-family="Arial" font-size="24px" font-style="normal" font-weight="normal" text-decoration="none" x="200" y="120"></text><text fill="#eeeeee" stroke="none" font-family="Arial" font-size="24px" font-style="normal" font-weight="normal" text-decoration="none" x="200" y="150"></text><text fill="#eeeeee" stroke="none" font-family="Arial" font-size="24px" font-style="normal" font-weight="normal" text-decoration="none" x="200" y="180"></text><text fill="#eeeeee" stroke="none" font-family="Arial" font-size="24px" font-style="normal" font-weight="normal" text-decoration="none" x="200" y="210"></text><text fill="#eeeeee" stroke="none" font-family="Arial" font-size="24px" font-style="normal" font-weight="normal" text-decoration="none" x="200" y="240"></text><text fill="#eeeeee" stroke="none" font-family="Arial" font-size="24px" font-style="normal" font-weight="normal" text-decoration="none" x="200" y="270"></text><text fill="#eeeeee" stroke="none" font-family="Arial" font-size="24px" font-style="normal" font-weight="normal" text-decoration="none" x="200" y="300"></text><text fill="#eeeeee" stroke="none" font-family="Arial" font-size="24px" font-style="normal" font-weight="normal" text-decoration="none" x="200" y="330"></text><text fill="#eeeeee" stroke="none" font-family="Arial" font-size="24px" font-style="normal" font-weight="normal" text-decoration="none" x="200" y="360"></text><text fill="#eeeeee" stroke="none" font-family="Arial" font-size="24px" font-style="normal" font-weight="normal" text-decoration="none" x="200" y="390"></text><text fill="#eeeeee" stroke="none" font-family="Arial" font-size="24px" font-style="normal" font-weight="normal" text-decoration="none" x="200" y="420"></text><text fill="#eeeeee" stroke="none" font-family="Arial" font-size="24px" font-style="normal" font-weight="normal" text-decoration="none" x="200" y="450"></text><text fill="#eeeeee" stroke="none" font-family="Arial" font-size="24px" font-style="normal" font-weight="normal" text-decoration="none" x="400" y="0"></text><text fill="#eeeeee" stroke="none" font-family="Arial" font-size="24px" font-style="normal" font-weight="normal" text-decoration="none" x="400" y="30"></text><text fill="#eeeeee" stroke="none" font-family="Arial" font-size="24px" font-style="normal" font-weight="normal" text-decoration="none" x="400" y="60"></text><text fill="#eeeeee" stroke="none" font-family="Arial" font-size="24px" font-style="normal" font-weight="normal" text-decoration="none" x="400" y="90"></text><text fill="#eeeeee" stroke="none" font-family="Arial" font-size="24px" font-style="normal" font-weight="normal" text-decoration="none" x="400" y="120"></text><text fill="#eeeeee" stroke="none" font-family="Arial" font-size="24px" font-style="normal" font-weight="normal" text-decoration="none" x="400" y="150"></text><text fill="#eeeeee" stroke="none" font-family="Arial" font-size="24px" font-style="normal" font-weight="normal" text-decoration="none" x="400" y="180"></text><text fill="#eeeeee" stroke="none" font-family="Arial" font-size="24px" font-style="normal" font-weight="normal" text-decoration="none" x="400" y="210"></text><text fill="#eeeeee" stroke="none" font-family="Arial" font-size="24px" font-style="normal" font-weight="normal" text-decoration="none" x="400" y="240"></text><text fill="#eeeeee" stroke="none" font-family="Arial" font-size="24px" font-style="normal" font-weight="normal" text-decoration="none" x="400" y="270"></text><text fill="#eeeeee" stroke="none" font-family="Arial" font-size="24px" font-style="normal" font-weight="normal" text-decoration="none" x="400" y="300"></text><text fill="#eeeeee" stroke="none" font-family="Arial" font-size="24px" font-style="normal" font-weight="normal" text-decoration="none" x="400" y="330"></text><text fill="#eeeeee" stroke="none" font-family="Arial" font-size="24px" font-style="normal" font-weight="normal" text-decoration="none" x="400" y="360"></text><text fill="#eeeeee" stroke="none" font-family="Arial" font-size="24px" font-style="normal" font-weight="normal" text-decoration="none" x="400" y="390"></text><text fill="#eeeeee" stroke="none" font-family="Arial" font-size="24px" font-style="normal" font-weight="normal" text-decoration="none" x="400" y="420"></text><text fill="#eeeeee" stroke="none" font-family="Arial" font-size="24px" font-style="normal" font-weight="normal" text-decoration="none" x="400" y="450"></text><text fill="#eeeeee" stroke="none" font-family="Arial" font-size="24px" font-style="normal" font-weight="normal" text-decoration="none" x="600" y="0"></text><text fill="#eeeeee" stroke="none" font-family="Arial" font-size="24px" font-style="normal" font-weight="normal" text-decoration="none" x="600" y="30"></text><text fill="#eeeeee" stroke="none" font-family="Arial" font-size="24px" font-style="normal" font-weight="normal" text-decoration="none" x="600" y="60"></text><text fill="#eeeeee" stroke="none" font-family="Arial" font-size="24px" font-style="normal" font-weight="normal" text-decoration="none" x="600" y="90"></text><text fill="#eeeeee" stroke="none" font-family="Arial" font-size="24px" font-style="normal" font-weight="normal" text-decoration="none" x="600" y="120"></text><text fill="#eeeeee" stroke="none" font-family="Arial" font-size="24px" font-style="normal" font-weight="normal" text-decoration="none" x="600" y="150"></text><text fill="#eeeeee" stroke="none" font-family="Arial" font-size="24px" font-style="normal" font-weight="normal" text-decoration="none" x="600" y="180"></text><text fill="#eeeeee" stroke="none" font-family="Arial" font-size="24px" font-style="normal" font-weight="normal" text-decoration="none" x="600" y="210"></text><text fill="#eeeeee" stroke="none" font-family="Arial" font-size="24px" font-style="normal" font-weight="normal" text-decoration="none" x="600" y="240"></text><text fill="#eeeeee" stroke="none" font-family="Arial" font-size="24px" font-style="normal" font-weight="normal" text-decoration="none" x="600" y="270"></text><text fill="#eeeeee" stroke="none" font-family="Arial" font-size="24px" font-style="normal" font-weight="normal" text-decoration="none" x="600" y="300"></text><text fill="#eeeeee" stroke="none" font-family="Arial" font-size="24px" font-style="normal" font-weight="normal" text-decoration="none" x="600" y="330"></text><text fill="#eeeeee" stroke="none" font-family="Arial" font-size="24px" font-style="normal" font-weight="normal" text-decoration="none" x="600" y="360"></text><text fill="#eeeeee" stroke="none" font-family="Arial" font-size="24px" font-style="normal" font-weight="normal" text-decoration="none" x="600" y="390"></text><text fill="#eeeeee" stroke="none" font-family="Arial" font-size="24px" font-style="normal" font-weight="normal" text-decoration="none" x="600" y="420"></text><text fill="#eeeeee" stroke="none" font-family="Arial" font-size="24px" font-style="normal" font-weight="normal" text-decoration="none" x="600" y="450"></text><g transform="translate(-126,-238) scale(1,1)"><rect fill="#C0C0C0" stroke="none" x="287" y="255" width="624" height="440" opacity="0.2"/></g><g transform="translate(-126,-238) scale(1,1)"><rect fill="#ffffff" stroke="none" x="280" y="248" width="624" height="440"/></g><g transform="translate(-126,-238) scale(1,1)"><path fill="none" stroke="#000000" d="M 280 248 L 904 248 L 904 688 L 280 688 L 280 248 Z Z" stroke-miterlimit="10"/></g><g transform="translate(-126,-238) scale(1,1)"><g><path fill="none" stroke="none"/><text fill="#000000" stroke="none" font-family="Arial" font-size="13px" font-style="normal" font-weight="bold" text-decoration="none" x="576.470458984375" y="267.5">Tetris</text></g></g><g transform="translate(-126,-238) scale(1,1)"><path fill="#ffffff" stroke="none" d="M 153.49162571022728 425.68 C 153.49162571022728 420.886167936 157.37746803517274 417 162.1708984375 417 C 166.96432883982726 417 170.85017116477272 420.886167936 170.85017116477272 425.68 C 170.85017116477272 430.473832064 166.96432883982726 434.36 162.1708984375 434.36 C 157.37746803517274 434.36 153.49162571022728 430.473832064 153.49162571022728 425.68 Z"/></g><g transform="translate(-126,-238) scale(1,1)"><path fill="none" stroke="#000000" d="M 153.49162571022728 425.68 C 153.49162571022728 420.886167936 157.37746803517274 417 162.1708984375 417 C 166.96432883982726 417 170.85017116477272 420.886167936 170.85017116477272 425.68 C 170.85017116477272 430.473832064 166.96432883982726 434.36 162.1708984375 434.36 C 157.37746803517274 434.36 153.49162571022728 430.473832064 153.49162571022728 425.68 Z" stroke-miterlimit="10"/></g><g transform="translate(-126,-238) scale(1,1)"><path fill="none" stroke="#000000" d="M 162.1708984375 434.36 L 162.1708984375 451.64" stroke-miterlimit="10"/></g><g transform="translate(-126,-238) scale(1,1)"><path fill="none" stroke="#000000" d="M 152.98108025568183 440.84 L 171.36071661931817 440.84" stroke-miterlimit="10"/></g><g transform="translate(-126,-238) scale(1,1)"><path fill="none" stroke="#000000" d="M 162.1708984375 451.64 L 149.40726207386365 469" stroke-miterlimit="10"/></g><g transform="translate(-126,-238) scale(1,1)"><path fill="none" stroke="#000000" d="M 162.1708984375 451.64 L 174.93453480113635 469" stroke-miterlimit="10"/></g><g transform="translate(-126,-238) scale(1,1)"><g><path fill="none" stroke="none"/><text fill="#000000" stroke="none" font-family="Arial" font-size="13px" font-style="normal" font-weight="bold" text-decoration="none" x="142.29638671875" y="489.5">Joueur</text></g></g><g transform="translate(-126,-238) scale(1,1)"><path fill="#C0C0C0" stroke="none" d="M 447 472 C 447 462.6111584 469.6096176 455 497.5 455 C 525.3903824 455 548 462.6111584 548 472 C 548 481.3888416 525.3903824 489 497.5 489 C 469.6096176 489 447 481.3888416 447 472 Z" opacity="0.2"/></g><g transform="translate(-126,-238) scale(1,1)"><path fill="#ffffff" stroke="none" d="M 440 465 C 440 455.6111584 462.6096176 448 490.5 448 C 518.3903824 448 541 455.6111584 541 465 C 541 474.3888416 518.3903824 482 490.5 482 C 462.6096176 482 440 474.3888416 440 465 Z"/></g><g transform="translate(-126,-238) scale(1,1)"><path fill="none" stroke="#000000" d="M 440 465 C 440 455.6111584 462.6096176 448 490.5 448 C 518.3903824 448 541 455.6111584 541 465 C 541 474.3888416 518.3903824 482 490.5 482 C 462.6096176 482 440 474.3888416 440 465 Z" stroke-miterlimit="10"/></g><g transform="translate(-126,-238) scale(1,1)"><g><path fill="none" stroke="none"/><text fill="#000000" stroke="none" font-family="Arial" font-size="13px" font-style="normal" font-weight="bold" text-decoration="none" x="476.773193359375" y="472">Start</text></g></g><g transform="translate(-126,-238) scale(1,1)"><path fill="#C0C0C0" stroke="none" d="M 591 344 C 591 334.6111584 613.6096176 327 641.5 327 C 669.3903824 327 692 334.6111584 692 344 C 692 353.3888416 669.3903824 361 641.5 361 C 613.6096176 361 591 353.3888416 591 344 Z" opacity="0.2"/></g><g transform="translate(-126,-238) scale(1,1)"><path fill="#ffffff" stroke="none" d="M 584 337 C 584 327.6111584 606.6096176 320 634.5 320 C 662.3903824 320 685 327.6111584 685 337 C 685 346.3888416 662.3903824 354 634.5 354 C 606.6096176 354 584 346.3888416 584 337 Z"/></g><g transform="translate(-126,-238) scale(1,1)"><path fill="none" stroke="#000000" d="M 584 337 C 584 327.6111584 606.6096176 320 634.5 320 C 662.3903824 320 685 327.6111584 685 337 C 685 346.3888416 662.3903824 354 634.5 354 C 606.6096176 354 584 346.3888416 584 337 Z" stroke-miterlimit="10"/></g><g transform="translate(-126,-238) scale(1,1)"><g><path fill="none" stroke="none"/><text fill="#000000" stroke="none" font-family="Arial" font-size="13px" font-style="normal" font-weight="bold" text-decoration="none" x="618.60546875" y="344">Move</text></g></g><g transform="translate(-126,-238) scale(1,1)"><path fill="#C0C0C0" stroke="none" d="M 599 584 C 599 574.6111584 621.6096176 567 649.5 567 C 677.3903824 567 700 574.6111584 700 584 C 700 593.3888416 677.3903824 601 649.5 601 C 621.6096176 601 599 593.3888416 599 584 Z" opacity="0.2"/></g><g transform="translate(-126,-238) scale(1,1)"><path fill="#ffffff" stroke="none" d="M 592 577 C 592 567.6111584 614.6096176 560 642.5 560 C 670.3903824 560 693 567.6111584 693 577 C 693 586.3888416 670.3903824 594 642.5 594 C 614.6096176 594 592 586.3888416 592 577 Z"/></g><g transform="translate(-126,-238) scale(1,1)"><path fill="none" stroke="#000000" d="M 592 577 C 592 567.6111584 614.6096176 560 642.5 560 C 670.3903824 560 693 567.6111584 693 577 C 693 586.3888416 670.3903824 594 642.5 594 C 614.6096176 594 592 586.3888416 592 577 Z" stroke-miterlimit="10"/></g><g transform="translate(-126,-238) scale(1,1)"><g><path fill="none" stroke="none"/><text fill="#000000" stroke="none" font-family="Arial" font-size="13px" font-style="normal" font-weight="bold" text-decoration="none" x="623.34912109375" y="584">Rotate</text></g></g><g transform="translate(-126,-238) scale(1,1)"><path fill="none" stroke="#000000" d="M 189 456 L 439 463" stroke-miterlimit="10"/></g><g transform="translate(-126,-238) scale(1,1)"><path fill="none" stroke="#000000" d="M 614 355 L 510 447" stroke-miterlimit="10" stroke-dasharray="3"/></g><g transform="translate(-126,-238) scale(1,1)"><path fill="none" stroke="#000000" d="M 514.8226920122618 437.11356273701864 L 510 447 L 520.400925055874 443.41939139501505" stroke-miterlimit="10"/></g><g transform="translate(-126,-238) scale(1,1)"><g><path fill="none" stroke="none"/><text fill="#000000" stroke="none" font-family="Arial" font-size="13px" font-style="normal" font-weight="normal" text-decoration="none" x="553.5" y="429.5">«include»</text></g></g><g transform="translate(-126,-238) scale(1,1)"><path fill="none" stroke="#000000" d="M 618 559 L 514 483" stroke-miterlimit="10" stroke-dasharray="3"/></g><g transform="translate(-126,-238) scale(1,1)"><path fill="none" stroke="#000000" d="M 524.6889387676198 485.59741949289594 L 514 483 L 519.7215681492588 492.39487402328456" stroke-miterlimit="10"/></g><g transform="translate(-126,-238) scale(1,1)"><g><path fill="none" stroke="none"/><text fill="#000000" stroke="none" font-family="Arial" font-size="13px" font-style="normal" font-weight="normal" text-decoration="none" x="574.5" y="523.5">«include»</text></g></g><g transform="translate(-126,-238) scale(1,1)"><path fill="none" stroke="#000000" d="M 189 448 L 583 350" stroke-miterlimit="10"/></g><g transform="translate(-126,-238) scale(1,1)"><path fill="none" stroke="#000000" d="M 189 462 L 591 564" stroke-miterlimit="10"/></g></g></svg>